<?xml version="1.0" encoding="UTF-8"?>
<svg width="1440px" height="1026px" viewBox="0 0 1440 1026" version="1.1" xmlns="http://www.w3.org/2000/svg" xmlns:xlink="http://www.w3.org/1999/xlink">
    <!-- Generator: Sketch 46.2 (44496) - http://www.bohemiancoding.com/sketch -->
    <title>Combined Shape</title>
    <desc>Created with Sketch.</desc>
    <defs></defs>
    <g id="Page-1" stroke="none" stroke-width="1" fill="none" fill-rule="evenodd">
        <g id="version2" transform="translate(0.000000, -2046.000000)" stroke="#979797" fill="#D8D8D8">
            <path d="M3.76689951,2047.3175 L137.671915,2047.3175 L1159.6966,3072 L1017.99949,3072 L3.76689951,2047.3175 Z M-192.233783,2047.3175 L-58.3287674,2047.3175 L963.695919,3072 L821.998803,3072 L-192.233783,2047.3175 Z M-388.233783,2047.3175 L-254.328767,2047.3175 L767.695919,3072 L625.998803,3072 L-388.233783,2047.3175 Z M-584.233783,2047.3175 L-450.328767,2047.3175 L571.695919,3072 L429.998803,3072 L-584.233783,2047.3175 Z M-780.233783,2047.3175 L-646.328767,2047.3175 L375.695919,3072 L233.998803,3072 L-780.233783,2047.3175 Z M-976.233783,2047.3175 L-842.328767,2047.3175 L179.695919,3072 L37.9988029,3072 L-976.233783,2047.3175 Z M198.830163,2047.3175 L332.735178,2047.3175 L1354.75986,3072 L1213.06275,3072 L198.830163,2047.3175 Z M393.830163,2047.3175 L527.735178,2047.3175 L1549.75986,3072 L1408.06275,3072 L393.830163,2047.3175 Z M588.830163,2047.3175 L722.735178,2047.3175 L1744.75986,3072 L1603.06275,3072 L588.830163,2047.3175 Z M783.830163,2047.3175 L917.735178,2047.3175 L1939.75986,3072 L1798.06275,3072 L783.830163,2047.3175 Z M978.830163,2047.3175 L1112.73518,2047.3175 L2134.75986,3072 L1993.06275,3072 L978.830163,2047.3175 Z M1173.83016,2047.3175 L1307.73518,2047.3175 L2329.75986,3072 L2188.06275,3072 L1173.83016,2047.3175 Z M1368.83016,2047.3175 L1502.73518,2047.3175 L2524.75986,3072 L2383.06275,3072 L1368.83016,2047.3175 Z" id="Combined-Shape"></path>
        </g>
    </g>
</svg>